<?xml version="1.0" encoding="UTF-8"?>
<svg version="1.1" xmlns="http://www.w3.org/2000/svg" width="42" height="42" viewBox="0 0 40 32" fill="none">
<path opacity="0.95" fill-rule="evenodd" clip-rule="evenodd" d="M0 0 C0.7027002 -0.00191345 1.40540039 -0.0038269 2.12939453 -0.00579834 C3.61556354 -0.00715975 5.10174445 -0.00346632 6.58789062 0.00488281 C8.86615646 0.01558346 11.14363377 0.00498661 13.421875 -0.0078125 C14.86458508 -0.0064909 16.30729466 -0.00392849 17.75 0 C19.06742188 0.00225586 20.38484375 0.00451172 21.7421875 0.00683594 C24.875 0.265625 24.875 0.265625 26.875 2.265625 C27.10205078 4.51220703 27.10205078 4.51220703 27.0703125 7.2734375 C27.06386719 8.25957031 27.05742188 9.24570313 27.05078125 10.26171875 C27.03402344 11.29425781 27.01726563 12.32679687 27 13.390625 C26.99097656 14.43089844 26.98195312 15.47117187 26.97265625 16.54296875 C26.94903747 19.11741592 26.91610149 21.69140712 26.875 24.265625 C27.865 24.265625 28.855 24.265625 29.875 24.265625 C29.30155063 27.13287186 29.0135485 28.1270765 26.875 30.265625 C24.1854026 30.47764918 21.60136277 30.56960114 18.91015625 30.56640625 C18.12104355 30.57069138 17.33193085 30.5749765 16.51890564 30.57939148 C14.84863241 30.58513863 13.17833414 30.58563221 11.50805664 30.58129883 C8.95090028 30.57814155 6.3949036 30.60158251 3.83789062 30.62695312 C2.2161473 30.62922634 0.59440085 30.62992951 -1.02734375 30.62890625 C-1.79304184 30.638116 -2.55873993 30.64732574 -3.34764099 30.65681458 C-8.60616844 30.61094444 -8.60616844 30.61094444 -11.13110352 28.93041992 C-12.125 27.265625 -12.125 27.265625 -12.125 24.265625 C-11.135 24.265625 -10.145 24.265625 -9.125 24.265625 C-9.13547363 23.60965332 -9.14594727 22.95368164 -9.15673828 22.27783203 C-9.19822503 19.31546842 -9.22430262 16.35316584 -9.25 13.390625 C-9.27513672 11.84181641 -9.27513672 11.84181641 -9.30078125 10.26171875 C-9.30722656 9.27558594 -9.31367188 8.28945312 -9.3203125 7.2734375 C-9.33078613 6.36223145 -9.34125977 5.45102539 -9.35205078 4.51220703 C-8.79869015 -0.96308814 -4.43802525 0.00759936 0 0 Z M-6.125 3.265625 C-6.125 10.195625 -6.125 17.125625 -6.125 24.265625 C3.775 24.265625 13.675 24.265625 23.875 24.265625 C23.875 17.335625 23.875 10.405625 23.875 3.265625 C13.975 3.265625 4.075 3.265625 -6.125 3.265625 Z M-8.125 26.265625 C-8.125 26.595625 -8.125 26.925625 -8.125 27.265625 C3.095 27.265625 14.315 27.265625 25.875 27.265625 C25.875 26.935625 25.875 26.605625 25.875 26.265625 C14.655 26.265625 3.435 26.265625 -8.125 26.265625 Z " fill="#F4C430" transform="translate(12.125,5.734375)"/>
<path opacity="0.85" fill-rule="evenodd" clip-rule="evenodd" d="M0 0 C0.99 0.33 1.98 0.66 3 1 C2.01 5.29 1.02 9.58 0 14 C-0.99 14 -1.98 14 -3 14 C-2.01 9.38 -1.02 4.76 0 0 Z " fill="#F4C430
" transform="translate(21,12)"/>
<path opacity="0.75" fill-rule="evenodd" clip-rule="evenodd" d="M0 0 C1.98 0.99 1.98 0.99 4 2 C4.33 2.99 4.66 3.98 5 5 C3.6875 7.1875 3.6875 7.1875 2 9 C1.34 9 0.68 9 0 9 C0 6.03 0 3.06 0 0 Z " fill="#F4C430
" transform="translate(26,15)"/>
<path opacity="0.75" fill-rule="evenodd" clip-rule="evenodd" d="M0 0 C0 2.97 0 5.94 0 9 C-4 7 -4 7 -4.9375 5.0625 C-5 3 -5 3 -3.6875 1.25 C-2 0 -2 0 0 0 Z " fill="#F4C430
" transform="translate(16,15)"/>
</svg>
